<?xml version="1.0" standalone="no"?><!-- Generator: Gravit.io --><svg xmlns="http://www.w3.org/2000/svg" xmlns:xlink="http://www.w3.org/1999/xlink" style="isolation:isolate" viewBox="-664 -307 1500 1071.522" width="1500" height="1071.522"><g id="Guides"><mask id="_mask_iTm6kPVYAOBkDbXCnXLH0t6M3ZVWsqRg"><path d=" M -664 -307 L 836 -307 L 836 418 L -664 418 L -664 -307 Z " fill-rule="evenodd" fill="white" fill-opacity="0.1" stroke="none"/></mask><path d=" M -664 -307 L 836 -307 L 836 418 L -664 418 L -664 -307 Z " fill-rule="evenodd" fill="rgb(223,223,223)" fill-opacity="0.1" mask="url(#_mask_iTm6kPVYAOBkDbXCnXLH0t6M3ZVWsqRg)" vector-effect="non-scaling-stroke" stroke-width="12" stroke="rgb(223,223,223)" stroke-linejoin="miter" stroke-linecap="square" stroke-miterlimit="10"/><mask id="_mask_JmY8xdrvKJdqeGUckHePOhpXAnt2a5Af"><path d=" M -258 -307 L 467 -307 L 467 418 L -258 418 L -258 -307 Z " fill-rule="evenodd" fill="white" fill-opacity="0.1" stroke="none"/></mask><path d=" M -258 -307 L 467 -307 L 467 418 L -258 418 L -258 -307 Z " fill-rule="evenodd" fill="rgb(223,172,212)" fill-opacity="0.1" mask="url(#_mask_JmY8xdrvKJdqeGUckHePOhpXAnt2a5Af)" vector-effect="non-scaling-stroke" stroke-width="12" stroke="rgb(223,172,212)" stroke-linejoin="miter" stroke-linecap="square" stroke-miterlimit="10"/><mask id="_mask_HBglSNyL2xSBPYXXoVlBfX5cnNqYs2Bh"><path d=" M -664 -207 L 836 -207 L 836 318 L -664 318 L -664 -207 Z " fill-rule="evenodd" fill="white" fill-opacity="0.1" stroke="none"/></mask><path d=" M -664 -207 L 836 -207 L 836 318 L -664 318 L -664 -207 Z " fill-rule="evenodd" fill="rgb(190,202,255)" fill-opacity="0.1" mask="url(#_mask_HBglSNyL2xSBPYXXoVlBfX5cnNqYs2Bh)" vector-effect="non-scaling-stroke" stroke-width="10.004" stroke="rgb(190,202,255)" stroke-linejoin="miter" stroke-linecap="square" stroke-miterlimit="10"/><g transform="matrix(1,0,0,1,-59.5,453)"><text transform="matrix(1,0,0,1,0.164,69.58)" style="font-family:&quot;Roboto&quot;;font-weight:100;font-size:75px;font-style:normal;fill:#DFACD4;stroke:none;">thumbnail</text><text transform="matrix(1,0,0,1,50.383,158.253)" style="font-family:&quot;Cairo&quot;;font-weight:200;font-size:54px;font-style:normal;fill:#DFACD4;stroke:none;">instagram</text><text transform="matrix(1,0,0,1,87.319,218.97)" style="font-family:&quot;Cairo&quot;;font-weight:200;font-size:54px;font-style:normal;fill:#DFACD4;stroke:none;">twitter</text><text transform="matrix(1,0,0,1,91.909,279.688)" style="font-family:&quot;Cairo&quot;;font-weight:200;font-size:54px;font-style:normal;fill:#DFACD4;stroke:none;">725px</text></g><g transform="matrix(1,0,0,1,-654,474)"><text transform="matrix(1,0,0,1,0,69.58)" style="font-family:&quot;Roboto&quot;;font-weight:100;font-size:75px;font-style:normal;fill:#becaff;stroke:none;">header</text><text transform="matrix(1,0,0,1,0,158.253)" style="font-family:&quot;Cairo&quot;;font-weight:200;font-size:54px;font-style:normal;fill:#bec9ff;stroke:none;">wordpress header</text><text transform="matrix(1,0,0,1,0,218.97)" style="font-family:&quot;Cairo&quot;;font-weight:200;font-size:54px;font-style:normal;fill:#bec9ff;stroke:none;">525px</text></g><g transform="matrix(1,0,0,1,586,454)"><text transform="matrix(1,0,0,1,20.702,69.58)" style="font-family:&quot;Roboto&quot;;font-weight:100;font-size:75px;font-style:normal;fill:#b3b3b3;stroke:none;">Image</text><text transform="matrix(1,0,0,1,0.766,158.253)" style="font-family:&quot;Cairo&quot;;font-weight:200;font-size:54px;font-style:normal;fill:#b3b3b3;stroke:none;">instagram</text><text transform="matrix(1,0,0,1,74.638,218.97)" style="font-family:&quot;Cairo&quot;;font-weight:200;font-size:54px;font-style:normal;fill:#b3b3b3;stroke:none;">twitter</text><text transform="matrix(1,0,0,1,53.578,279.688)" style="font-family:&quot;Cairo&quot;;font-weight:200;font-size:54px;font-style:normal;fill:#b3b3b3;stroke:none;">1500px</text></g></g><g style="isolation:isolate" id="Image"/><g style="isolation:isolate" id="Elements"/></svg>